# xmcd CD database file
#
# Track frame offsets:
#	150
#	12638
#	28561
#	41396
#	63329
#	80251
#	100197
#	115855
#	135221
#	157005
#	169147
#	190232
#	206955
#	219526
#	236019
#	250738
#
# Disc length: 3554 seconds
#
# Revision: 2
# Processed by: cddbd v1.5.1PL0 Copyright (c) Steve Scherf et al.
# Submitted via: CDex 1.51
#
DISCID=d60de010
DTITLE=Various Artist - Branson Christmas
DYEAR=2001
DGENRE=Christmas
TTITLE0=Mickey Gilley - Rockin' Around the Christmas Tree
TTITLE1=Tony Orlando - Away In The Manger
TTITLE2=Boxcar Willie - Joy To The World
TTITLE3=Eddie Rabbitt - Silent Night
TTITLE4=Stella Parton - Deck The Halls
TTITLE5=Jennifer Wilson - O' Holy Night
TTITLE6=Mickey Gilley - God Rest Ye Merry Gentlemen
TTITLE7=Boxcar Willie - O' Come All Ye Faithful
TTITLE8=Tony Orlando - Little Drummer Boy
TTITLE9=Jennifer Wilson - Jingle Bells
TTITLE10=Mickey Gilley - Blue Christmas
TTITLE11=Eddie Rabbitt - White Christmas
TTITLE12=Tony Orlando - Go Tell It On The Mountain
TTITLE13=Stella Parton - It Came Upon A Midnight Clear
TTITLE14=Eddie Rabbitt - We Wish You A Merry Christmas
TTITLE15=Boxcar Willie - Auld Lang Syne
EXTD=YEAR: 2001
EXTT0=
EXTT1=
EXTT2=
EXTT3=
EXTT4=
EXTT5=
EXTT6=
EXTT7=
EXTT8=
EXTT9=
EXTT10=
EXTT11=
EXTT12=
EXTT13=
EXTT14=
EXTT15=
PLAYORDER=
